<mxfile host="app.diagrams.net" modified="2024-04-27T08:08:07.365Z" agent="Mozilla/5.0 (Windows NT 10.0; Win64; x64) AppleWebKit/537.36 (KHTML, like Gecko) Chrome/125.0.0.0 Safari/537.36 Edg/125.0.0.0" etag="uqAqsDTZ8dxb0gwLIlZu" version="24.0.7" type="github">
  <diagram name="第 1 页" id="5ZM5K8MW1E_sq5mhABBy">
    <mxGraphModel dx="956" dy="577" grid="1" gridSize="10" guides="1" tooltips="1" connect="1" arrows="1" fold="1" page="1" pageScale="1" pageWidth="827" pageHeight="1169" math="0" shadow="0">
      <root>
        <mxCell id="0" />
        <mxCell id="1" parent="0" />
        <mxCell id="X2RzeQsfwsrI-iEGqudV-7" value="&lt;div style=&quot;text-align: justify; padding-top: 280px;&quot;&gt;&lt;span style=&quot;background-color: initial;&quot;&gt;微服务化应用&lt;/span&gt;&lt;/div&gt;" style="whiteSpace=wrap;html=1;aspect=fixed;fillColor=#ffe6cc;strokeColor=#d79b00;align=center;" vertex="1" parent="1">
          <mxGeometry x="470" y="180" width="310" height="310" as="geometry" />
        </mxCell>
        <mxCell id="X2RzeQsfwsrI-iEGqudV-14" value="&lt;div style=&quot;text-align: justify; padding-top: 80px;&quot;&gt;进程 1.3&lt;/div&gt;" style="rounded=1;whiteSpace=wrap;html=1;fillColor=#f8cecc;strokeColor=#b85450;" vertex="1" parent="1">
          <mxGeometry x="570" y="350" width="100" height="110" as="geometry" />
        </mxCell>
        <mxCell id="X2RzeQsfwsrI-iEGqudV-12" value="&lt;div style=&quot;text-align: justify; padding-top: 100px;&quot;&gt;进程 1.2&lt;/div&gt;" style="rounded=1;whiteSpace=wrap;html=1;fillColor=#f8cecc;strokeColor=#b85450;" vertex="1" parent="1">
          <mxGeometry x="660" y="190" width="100" height="140" as="geometry" />
        </mxCell>
        <mxCell id="X2RzeQsfwsrI-iEGqudV-1" value="&lt;div style=&quot;text-align: justify; padding-top: 280px;&quot;&gt;&lt;span style=&quot;background-color: initial;&quot;&gt;大型单体应用&lt;/span&gt;&lt;/div&gt;" style="whiteSpace=wrap;html=1;aspect=fixed;fillColor=#ffe6cc;strokeColor=#d79b00;align=center;" vertex="1" parent="1">
          <mxGeometry x="120" y="180" width="310" height="310" as="geometry" />
        </mxCell>
        <mxCell id="X2RzeQsfwsrI-iEGqudV-3" value="&lt;div style=&quot;text-align: justify; padding-top: 200px;&quot;&gt;单进程&lt;/div&gt;" style="rounded=1;whiteSpace=wrap;html=1;fillColor=#f8cecc;strokeColor=#b85450;" vertex="1" parent="1">
          <mxGeometry x="190" y="220" width="160" height="220" as="geometry" />
        </mxCell>
        <mxCell id="X2RzeQsfwsrI-iEGqudV-4" value="" style="triangle;whiteSpace=wrap;html=1;fillColor=#dae8fc;strokeColor=#6c8ebf;" vertex="1" parent="1">
          <mxGeometry x="290" y="260" width="60" height="80" as="geometry" />
        </mxCell>
        <mxCell id="X2RzeQsfwsrI-iEGqudV-5" value="" style="rhombus;whiteSpace=wrap;html=1;fillColor=#dae8fc;strokeColor=#6c8ebf;" vertex="1" parent="1">
          <mxGeometry x="210" y="260" width="80" height="80" as="geometry" />
        </mxCell>
        <mxCell id="X2RzeQsfwsrI-iEGqudV-6" value="" style="ellipse;whiteSpace=wrap;html=1;fillColor=#dae8fc;strokeColor=#6c8ebf;" vertex="1" parent="1">
          <mxGeometry x="215" y="340" width="120" height="80" as="geometry" />
        </mxCell>
        <mxCell id="X2RzeQsfwsrI-iEGqudV-8" value="&lt;div style=&quot;text-align: justify; padding-top: 100px;&quot;&gt;进程 1.1&lt;/div&gt;" style="rounded=1;whiteSpace=wrap;html=1;fillColor=#f8cecc;strokeColor=#b85450;" vertex="1" parent="1">
          <mxGeometry x="480" y="190" width="100" height="140" as="geometry" />
        </mxCell>
        <mxCell id="X2RzeQsfwsrI-iEGqudV-9" value="" style="triangle;whiteSpace=wrap;html=1;fillColor=#dae8fc;strokeColor=#6c8ebf;" vertex="1" parent="1">
          <mxGeometry x="690" y="210" width="60" height="80" as="geometry" />
        </mxCell>
        <mxCell id="X2RzeQsfwsrI-iEGqudV-10" value="" style="rhombus;whiteSpace=wrap;html=1;fillColor=#dae8fc;strokeColor=#6c8ebf;" vertex="1" parent="1">
          <mxGeometry x="490" y="210" width="80" height="80" as="geometry" />
        </mxCell>
        <mxCell id="X2RzeQsfwsrI-iEGqudV-11" value="" style="ellipse;whiteSpace=wrap;html=1;fillColor=#dae8fc;strokeColor=#6c8ebf;" vertex="1" parent="1">
          <mxGeometry x="575" y="360" width="90" height="70" as="geometry" />
        </mxCell>
        <mxCell id="X2RzeQsfwsrI-iEGqudV-13" style="edgeStyle=orthogonalEdgeStyle;rounded=0;orthogonalLoop=1;jettySize=auto;html=1;exitX=0.5;exitY=1;exitDx=0;exitDy=0;" edge="1" parent="1" source="X2RzeQsfwsrI-iEGqudV-8" target="X2RzeQsfwsrI-iEGqudV-8">
          <mxGeometry relative="1" as="geometry" />
        </mxCell>
        <mxCell id="X2RzeQsfwsrI-iEGqudV-15" value="" style="endArrow=classic;html=1;rounded=0;exitX=1;exitY=1;exitDx=0;exitDy=0;entryX=0.5;entryY=0;entryDx=0;entryDy=0;" edge="1" parent="1" source="X2RzeQsfwsrI-iEGqudV-10" target="X2RzeQsfwsrI-iEGqudV-11">
          <mxGeometry width="50" height="50" relative="1" as="geometry">
            <mxPoint x="550" y="370" as="sourcePoint" />
            <mxPoint x="600" y="320" as="targetPoint" />
          </mxGeometry>
        </mxCell>
        <mxCell id="X2RzeQsfwsrI-iEGqudV-16" value="" style="endArrow=classic;html=1;rounded=0;entryX=0;entryY=0.5;entryDx=0;entryDy=0;" edge="1" parent="1" target="X2RzeQsfwsrI-iEGqudV-9">
          <mxGeometry width="50" height="50" relative="1" as="geometry">
            <mxPoint x="620" y="360" as="sourcePoint" />
            <mxPoint x="670" y="310" as="targetPoint" />
          </mxGeometry>
        </mxCell>
        <mxCell id="X2RzeQsfwsrI-iEGqudV-17" value="" style="endArrow=classic;html=1;rounded=0;exitX=0;exitY=0.5;exitDx=0;exitDy=0;entryX=1;entryY=0.5;entryDx=0;entryDy=0;" edge="1" parent="1" source="X2RzeQsfwsrI-iEGqudV-9" target="X2RzeQsfwsrI-iEGqudV-10">
          <mxGeometry width="50" height="50" relative="1" as="geometry">
            <mxPoint x="580" y="150" as="sourcePoint" />
            <mxPoint x="630" y="100" as="targetPoint" />
          </mxGeometry>
        </mxCell>
      </root>
    </mxGraphModel>
  </diagram>
</mxfile>
